<?xml version="1.0" encoding="utf-8"?>
<!-- Generator: Adobe Illustrator 22.1.0, SVG Export Plug-In . SVG Version: 6.00 Build 0)  -->
<svg version="1.1" id="Layer_1" xmlns="http://www.w3.org/2000/svg" xmlns:xlink="http://www.w3.org/1999/xlink" x="0px" y="0px"
	 viewBox="0 0 100 100" style="enable-background:new 0 0 100 100;" xml:space="preserve">
<style type="text/css">
	.st0{fill:#EC0000;}
</style>
<g>
	<g>
		<path class="st0" d="M36.8,89.5l7.9-7.9l-7.9-7.9l5.2-5.2l7.9,7.9l7.9-7.9l5.2,5.2l-7.9,7.9l7.9,7.9l-5.2,5.2L50,86.8l-7.9,7.9
			L36.8,89.5z"/>
		<path class="st0" d="M36.8,26.5l7.9-7.9l-7.9-7.9l5.2-5.2l7.9,7.9l7.9-7.9l5.2,5.2l-7.9,7.9l7.9,7.9l-5.2,5.2L50,23.8l-7.9,7.9
			L36.8,26.5z"/>
		<path class="st0" d="M36.8,58l7.9-7.9l-7.9-7.9l5.2-5.2l7.9,7.9l7.9-7.9l5.2,5.2l-7.9,7.9l7.9,7.9l-5.2,5.2L50,55.3l-7.9,7.9
			L36.8,58z"/>
	</g>
	<g>
		<path d="M29.4,12.4h-4.6c-1,0-1.8,0.2-2.5,0.8c-0.7,0.5-1.2,1.2-1.6,2c-0.4,0.8-0.7,1.8-0.8,2.8c-0.2,1-0.2,2.1-0.2,3.2v15.3
			c0.1,2.4-0.2,4.3-0.8,6c-0.7,1.6-1.4,3-2.4,4c-1,1.1-1.9,1.9-2.9,2.4c-1,0.5-1.8,0.9-2.4,1v0.3c0.6,0.1,1.4,0.3,2.4,0.8
			c1,0.5,1.9,1.2,2.9,2.2c1,1,1.7,2.4,2.4,4.1c0.6,1.7,0.9,3.8,0.8,6.4V79c0,1,0.1,2.1,0.2,3.1c0.2,1,0.5,2,0.8,2.8
			c0.4,0.8,0.9,1.5,1.6,2c0.6,0.5,1.5,0.8,2.5,0.8h4.6V95h-7.6c-1.3,0-2.5-0.3-3.8-0.9c-1.3-0.6-2.4-1.5-3.4-2.8
			c-1-1.3-1.8-2.8-2.5-4.8c-0.7-2-1-4.3-1-7V66c-0.1-3.7-1-6.6-2.6-8.7c-1.6-2.1-3.6-3.1-5.9-3.1v-7.9c2.3,0,4.3-1,5.9-3.1
			c1.6-2.1,2.5-5,2.6-8.7v-16c0-2.2,0.3-4.1,1-5.7c0.6-1.7,1.5-3,2.5-4.2s2.1-2,3.4-2.5c1.3-0.6,2.5-0.8,3.8-0.8h7.6V12.4z"/>
	</g>
	<g>
		<path d="M70.6,87.7h4.6c1,0,1.8-0.2,2.5-0.8c0.7-0.5,1.2-1.2,1.6-2c0.4-0.8,0.7-1.8,0.9-2.8c0.2-1,0.2-2.1,0.2-3.2V63.6
			c-0.1-2.4,0.2-4.3,0.9-6c0.6-1.6,1.4-3,2.4-4c1-1.1,1.9-1.9,2.9-2.4c1-0.5,1.8-0.9,2.4-1v-0.3c-0.6-0.1-1.4-0.3-2.4-0.8
			c-1-0.5-1.9-1.2-2.9-2.2c-1-1-1.7-2.4-2.4-4.1s-0.9-3.8-0.9-6.4V21.1c0-1-0.1-2.1-0.2-3.1c-0.2-1-0.5-2-0.9-2.8
			c-0.4-0.8-0.9-1.5-1.6-2c-0.6-0.5-1.5-0.8-2.5-0.8h-4.6V5.1h7.6c1.3,0,2.5,0.3,3.8,0.9c1.3,0.6,2.4,1.5,3.4,2.8s1.8,2.8,2.5,4.8
			c0.7,2,1,4.3,1,7v13.6c0.1,3.7,1,6.6,2.6,8.7c1.6,2.1,3.6,3.1,5.9,3.1v7.9c-2.3,0-4.3,1-5.9,3.1c-1.6,2.1-2.5,5-2.6,8.7v16
			c0,2.2-0.3,4.1-1,5.7c-0.6,1.7-1.5,3-2.5,4.2c-1,1.1-2.1,2-3.4,2.5c-1.3,0.6-2.5,0.9-3.8,0.9h-7.6V87.7z"/>
	</g>
</g>
</svg>
