<?xml version="1.0" encoding="utf-8"?>
<!-- Generator: Adobe Illustrator 22.1.0, SVG Export Plug-In . SVG Version: 6.00 Build 0)  -->
<svg version="1.1" id="Layer_1" xmlns="http://www.w3.org/2000/svg" xmlns:xlink="http://www.w3.org/1999/xlink" x="0px" y="0px"
	 viewBox="0 0 1000 1000" style="enable-background:new 0 0 1000 1000;" xml:space="preserve">
<style type="text/css">
	.st0{fill:#EC0000;}
</style>
<g>
	<g>
		<path class="st0" d="M366,901.5l80.4-80.4L366,740.7l53.4-53.4l80.4,80.4l80.4-80.4l53.4,53.4l-80.4,80.4l80.4,80.4l-53.4,53.4
			l-80.4-80.4l-80.4,80.4L366,901.5z"/>
		<path class="st0" d="M366,259.3l80.4-80.4L366,98.5l53.4-53.4l80.4,80.4l80.4-80.4l53.4,53.4l-80.4,80.4l80.4,80.4l-53.4,53.4
			l-80.4-80.4l-80.4,80.4L366,259.3z"/>
		<path class="st0" d="M366,580.4l80.4-80.4L366,419.6l53.4-53.4l80.4,80.4l80.4-80.4l53.4,53.4L553.6,500l80.4,80.4l-53.4,53.4
			l-80.4-80.4l-80.4,80.4L366,580.4z"/>
	</g>
	<g>
		<path d="M289.8,116.4h-46.5c-10.3,0-18.6,2.5-25.3,7.8c-6.7,5.3-12,12-15.9,20.6c-4.2,8.6-7,18.1-8.6,28.9
			c-1.7,10.6-2.5,21.4-2.5,32.6v155.8c0.6,24.2-2.2,44.2-8.6,60.9c-6.7,16.4-14.7,30.3-24.2,41.2c-9.7,11.1-19.5,19.2-29.5,24.8
			s-18.1,8.9-24.2,10.3v3.1c6.1,0.6,14.2,3.3,24.2,8.3c10,4.7,19.8,12.2,29.5,22.8c9.7,10.3,17.8,24.2,24.2,41.7s9.5,39.2,8.6,65.4
			v154.2c0,10.3,0.8,20.9,2.5,31.4c1.7,10.6,4.7,20.3,8.6,28.9c4.2,8.6,9.5,15.6,15.9,20.6c6.4,5.3,15,7.8,25.3,7.8h46.5v74.3h-77.4
			c-13.1,0-25.9-3.1-38.7-9.2c-12.8-6.1-24.2-15.6-34.5-28.4c-10.3-12.8-18.6-28.9-25.3-49c-6.7-20-9.7-43.7-9.7-71.2V661.8
			c-1.4-37.8-10.3-67.3-26.7-88.8c-16.4-21.4-36.5-32-59.8-32v-80.4c23.4,0,43.4-10.6,59.8-32s25.3-50.9,26.7-88.8V177.1
			c0-22,3.3-41.5,9.7-58.2c6.4-17,15-30.9,25.3-42.3s21.7-20,34.5-25.9c12.8-5.8,25.6-8.6,38.7-8.6h77.4V116.4z"/>
	</g>
	<g>
		<path d="M710.2,883.4h46.5c10.3,0,18.6-2.5,25.3-7.8c6.7-5.3,12-12,15.9-20.6c4.2-8.6,7-18.1,8.9-28.9c1.7-10.6,2.5-21.4,2.5-32.6
			V637.7c-0.6-24.2,2.2-44.2,8.9-60.9c6.4-16.4,14.7-30.3,24.2-41.2c9.7-11.1,19.5-19.2,29.5-24.8c10-5.6,18.1-8.9,24.2-10.3v-3.1
			c-6.1-0.6-14.2-3.3-24.2-8.3c-10-4.7-19.8-12.2-29.5-22.8c-9.7-10.3-17.8-24.2-24.2-41.7c-6.4-17.5-9.5-39.2-8.9-65.4V205.1
			c0-10.3-0.8-20.9-2.5-31.4c-1.7-10.6-4.7-20.3-8.9-28.9c-4.2-8.6-9.5-15.6-15.9-20.6c-6.4-5.3-15-7.8-25.3-7.8h-46.5V42h77.4
			c13.1,0,25.9,3.1,38.7,9.2c12.8,6.1,24.2,15.6,34.5,28.4c10.3,12.8,18.6,28.9,25.3,49c6.7,20,9.7,43.7,9.7,71.2v138.3
			c1.4,37.8,10.3,67.3,26.7,88.8c16.4,21.4,36.5,32,59.8,32v80.4c-23.4,0-43.4,10.6-59.8,32s-25.3,50.9-26.7,88.8v162.8
			c0,22-3.3,41.5-9.7,58.2c-6.4,17-15,30.9-25.3,42.3c-10.3,11.4-21.7,20-34.5,25.9c-12.8,5.8-25.6,8.9-38.7,8.9h-77.4V883.4z"/>
	</g>
</g>
</svg>
